# xmcd
#
# Track frame offsets: 
#        150
#        22393
#        40941
#        60899
#        80335
#        100117
#        120138
#        144726
#        163153
#        182322
#        199530
#
# Disc length: 2894 seconds
#
# Revision: 0
# Processed by: cddbd v1.5.2PL0 Copyright (c) Steve Scherf et al.
# Submitted via: ExactAudioCopyFreeDBPlugin 1.0
#
DISCID=840b4c0b
DTITLE=梁靜茹 - 愛久見人心
DYEAR=2012
DGENRE=Pop
TTITLE0=愛久見人心
TTITLE1=小愛情
TTITLE2=偶陣雨
TTITLE3=會過去的
TTITLE4=至少愛
TTITLE5=一路兩個人
TTITLE6=沒有人像你
TTITLE7=她
TTITLE8=BONJOUR!
TTITLE9=心電感應
TTITLE10=環遊四季的愛
EXTD=
EXTT0=
EXTT1=
EXTT2=
EXTT3=
EXTT4=
EXTT5=
EXTT6=
EXTT7=
EXTT8=
EXTT9=
EXTT10=
PLAYORDER=
